#!OML:ASF F:\VICON\USERDATA\INSTALL\rory3\rory3.ASF
:FULLY-SPECIFIED
:DEGREES
229
root -0.101944 20.273 8.57153 -168.382 -3.26289 177.864
lowerback 7.38378 0.929912 -4.45529
upperback 0.747042 0.811185 -0.0766335
thorax -3.4314 0.439194 2.34266
lowerneck -14.7747 2.38563 -9.94107
upperneck 38.5283 0.951563 4.30607
head 16.0783 -1.78339 3.44491
rclavicle -1.14301e-015 2.15681e-014
rhumerus -29.4631 -0.331633 -82.9366
rradius 41.6731
rwrist 16.0503
rhand -20.6994 4.08261
rfingers 7.12502
rthumb 5.66457 -25.8217
lclavicle -1.14301e-015 2.15681e-014
lhumerus -29.6983 8.62999 81.6046
lradius 32.6684
lwrist -2.86944
lhand -18.1119 23.5011
lfingers 7.12502
lthumb 8.16236 53.3234
rfemur -27.7165 -3.43899 18.8619
rtibia 55.7801
rfoot -2.39841 -14.5125
rtoes 15.7035
lfemur -37.3315 2.19787 -27.991
ltibia 57.4956
lfoot -20.2147 -3.66487
ltoes -21.8285
230
root -0.120159 20.3466 8.52801 -168.642 -3.23008 177.88
lowerback 7.51701 0.886366 -4.36449
upperback 0.764617 0.753317 -0.0601683
thorax -3.48242 0.409386 2.31369
lowerneck -14.9595 2.3897 -9.81803
upperneck 38.7667 0.948684 4.13822
head 16.2528 -1.81733 3.35332
rclavicle -1.36913e-014 -1.09332e-015
rhumerus -29.4603 -0.612136 -82.7952
rradius 41.7682
rwrist 16.3654
rhand -20.4807 4.36842
rfingers 7.12502
rthumb 5.87578 -25.5301
lclavicle -1.36913e-014 -1.09332e-015
lhumerus -29.6257 8.81203 81.5759
lradius 32.7127
lwrist -2.76056
lhand -18.1978 23.3405
lfingers 7.12502
lthumb 8.07939 53.1661
rfemur -28.8202 -3.52686 18.6874
rtibia 58.3031
rfoot -2.62219 -13.622
rtoes 16.8311
lfemur -36.2713 2.07996 -27.9599
ltibia 56.342
lfoot -19.7726 -3.57188
ltoes -21.7591
231
root -0.138135 20.4191 8.48628 -168.862 -3.17176 177.897
lowerback 7.624 0.81575 -4.25803
upperback 0.778065 0.66214 -0.0527969
thorax -3.52049 0.362648 2.27044
lowerneck -15.2019 2.44678 -9.62705
upperneck 38.9996 1.04772 3.90934
head 16.4318 -1.80476 3.24022
rclavicle -1.13307e-014 -4.37326e-015
rhumerus -29.4861 -0.851971 -82.7036
rradius 41.8888
rwrist 16.7506
rhand -20.308 4.46919
rfingers 7.12502
rthumb 6.04246 -25.4246
lclavicle -1.13307e-014 -4.37326e-015
lhumerus -29.5514 8.99615 81.5278
lradius 32.811
lwrist -2.59195
lhand -18.2552 23.7256
lfingers 7.12502
lthumb 8.024 53.5532
rfemur -29.9953 -3.60833 18.5248
rtibia 60.8772
rfoot -2.72408 -12.5545
rtoes 17.9352
lfemur -35.2312 1.96372 -27.934
ltibia 55.1331
lfoot -19.3611 -3.54521
ltoes -21.2669
232
root -0.154062 20.4922 8.45017 -168.993 -3.15604 177.869
lowerback 7.72153 0.707743 -4.2698
upperback 0.756524 0.515535 0.015993
thorax -3.5877 0.292624 2.36354
lowerneck -15.2178 2.52068 -9.64821
upperneck 39.0137 1.19328 3.82248
head 16.4301 -1.76669 3.22872
rclavicle -8.10048e-015 1.98785e-016
rhumerus -29.4932 -0.869931 -82.5574
rradius 42.021
rwrist 16.8017
rhand -20.497 3.87222
rfingers 7.12502
rthumb 5.86003 -26.0267
lclavicle -8.10048e-015 1.98785e-016
lhumerus -29.4349 9.17433 81.5828
lradius 32.8901
lwrist -2.34271
lhand -18.1675 24.0823
lfingers 7.12502
lthumb 8.10865 53.9067
rfemur -31.3432 -3.76063 18.3508
rtibia 63.4878
rfoot -2.54642 -11.5438
rtoes 19.0267
lfemur -34.2858 1.78971 -27.959
ltibia 53.8463
lfoot -18.9233 -3.44966
ltoes -21.2718
233
root -0.172087 20.5656 8.41116 -169.14 -3.18219 177.824
lowerback 7.8159 0.595178 -4.27149
upperback 0.723426 0.364678 0.0929732
thorax -3.66439 0.221135 2.4604
lowerneck -15.1449 2.58415 -9.6658
upperneck 39.0361 1.30263 3.7079
head 16.4151 -1.75244 3.1955
rclavicle 1.15295e-014 2.68359e-015
rhumerus -29.507 -0.970495 -82.3823
rradius 42.1153
rwrist 16.6832
rhand -21.0716 3.29785
rfingers 7.12502
rthumb 5.30524 -26.6157
lclavicle 1.15295e-014 2.68359e-015
lhumerus -29.3705 9.3213 81.6474
lradius 32.9246
lwrist -2.09838
lhand -18.3376 23.9118
lfingers 7.12502
lthumb 7.94446 53.7425
rfemur -32.6526 -3.98991 18.178
rtibia 66.1205
rfoot -2.46767 -10.7511
rtoes 19.8016
lfemur -33.2846 1.56115 -27.9986
ltibia 52.4611
lfoot -18.4084 -3.33586
ltoes -21.2638
234
root -0.19034 20.645 8.36499 -169.355 -3.03644 177.865
lowerback 7.88216 0.56191 -4.21793
upperback 0.742498 0.324164 0.156631
thorax -3.67865 0.200408 2.50076
lowerneck -15.1736 2.59782 -9.7297
upperneck 39.0828 1.32063 3.72269
head 16.444 -1.76276 3.21581
rclavicle 4.96962e-016 -6.4605e-015
rhumerus -29.5715 -1.17727 -82.1989
rradius 42.2598
rwrist 16.5529
rhand -21.5001 3.32898
rfingers 7.12502
rthumb 4.89143 -26.5946
lclavicle 4.96962e-016 -6.4605e-015
lhumerus -29.2731 9.45736 81.6867
lradius 32.9409
lwrist -1.99384
lhand -18.4542 24.0054
lfingers 7.12502
lthumb 7.83196 53.8403
rfemur -33.8469 -4.04494 18.0786
rtibia 68.7358
rfoot -1.49396 -9.91441
rtoes 24.47
lfemur -32.1721 1.54002 -27.9633
ltibia 50.992
lfoot -17.8474 -3.30148
ltoes -21.1224
235
root -0.207219 20.7228 8.32153 -169.54 -2.77384 177.861
lowerback 7.88954 0.57747 -4.24763
upperback 0.788467 0.342109 0.187397
thorax -3.63675 0.207488 2.54759
lowerneck -15.2809 2.60631 -9.74269
upperneck 39.1393 1.32741 3.75785
head 16.4989 -1.76384 3.23693
rclavicle -1.20265e-014 0
rhumerus -29.5762 -1.37636 -82.0275
rradius 42.4059
rwrist 16.358
rhand -21.4431 3.52709
rfingers 7.12502
rthumb 4.9465 -26.3952
lclavicle -1.20265e-014 0
lhumerus -29.0819 9.49928 81.7245
lradius 32.9987
lwrist -1.8897
lhand -18.3806 24.3944
lfingers 7.12502
lthumb 7.903 54.2266
rfemur -35.1172 -3.99683 17.9192
rtibia 71.3735
rfoot -3.7686 -10.3314
rtoes 16.3574
lfemur -31.0549 1.62176 -28.0018
ltibia 49.4503
lfoot -17.1815 -3.23774
ltoes -21
236
root -0.221454 20.7948 8.28142 -169.713 -2.52061 177.85
lowerback 7.95523 0.596395 -4.32069
upperback 0.798651 0.358596 0.230032
thorax -3.66499 0.217075 2.63114
lowerneck -15.395 2.63053 -9.68019
upperneck 39.2457 1.34713 3.72255
head 16.5834 -1.76484 3.21561
rclavicle 1.63997e-015 2.88238e-015
rhumerus -29.5833 -1.55506 -81.8676
rradius 42.534
rwrist 16.2518
rhand -21.3267 3.28827
rfingers 7.12502
rthumb 5.05886 -26.6313
lclavicle 1.63997e-015 2.88238e-015
lhumerus -28.9744 9.43413 81.7949
lradius 33.1969
lwrist -1.82772
lhand -18.3025 24.7033
lfingers 7.12502
lthumb 7.9784 54.5327
rfemur -36.4373 -3.95712 17.7938
rtibia 74.0134
rfoot -4.79296 -10.4426
rtoes 15.4867
lfemur -29.9494 1.72757 -28.061
ltibia 47.8862
lfoot -16.5324 -3.13607
ltoes -21.0924
237
root -0.237744 20.8707 8.23772 -169.869 -2.27078 177.706
lowerback 8.06507 0.596827 -4.46494
upperback 0.773847 0.339391 0.223777
thorax -3.75175 0.21173 2.70779
lowerneck -15.4659 2.67389 -9.5492
upperneck 39.3353 1.41478 3.56211
head 16.6476 -1.75402 3.13248
rclavicle -2.33572e-015 3.97569e-016
rhumerus -29.6392 -1.65509 -81.7474
rradius 42.7038
rwrist 16.0959
rhand -21.2373 2.74146
rfingers 7.12502
rthumb 5.14524 -27.1761
lclavicle -2.33572e-015 3.97569e-016
lhumerus -28.9013 9.41277 81.8135
lradius 33.2848
lwrist -1.96655
lhand -18.3118 24.7246
lfingers 7.12502
lthumb 7.96941 54.5544
rfemur -37.7628 -4.00426 17.5569
rtibia 76.6273
rfoot -6.18538 -10.4365
rtoes 14.0998
lfemur -28.8416 1.78219 -28.2875
ltibia 46.3215
lfoot -15.9307 -2.90826
ltoes -21.5914
238
root -0.252866 20.9491 8.19398 -169.993 -2.10008 177.656
lowerback 8.11055 0.542572 -4.50296
upperback 0.750255 0.262118 0.240671
thorax -3.79585 0.175755 2.75544
lowerneck -15.3965 2.75051 -9.41993
upperneck 39.2746 1.53605 3.42092
head 16.5903 -1.70436 3.06354
rclavicle -2.23633e-015 5.1684e-015
rhumerus -29.683 -1.72327 -81.6753
rradius 42.8179
rwrist 15.9165
rhand -21.2883 2.74874
rfingers 7.12502
rthumb 5.09598 -27.17
lclavicle -2.23633e-015 5.1684e-015
lhumerus -28.8834 9.26254 81.8251
lradius 33.3733
lwrist -1.94997
lhand -18.3146 24.5407
lfingers 7.12502
lthumb 7.96667 54.3706
rfemur -39.0788 -4.1234 17.4552
rtibia 79.1812
rfoot -7.12336 -10.3211
rtoes 14.9008
lfemur -27.7607 1.69872 -28.3633
ltibia 44.8078
lfoot -15.3831 -2.73768
ltoes -21.6025
239
root -0.264635 21.027 8.15667 -170.076 -1.98893 177.726
lowerback 8.1191 0.490035 -4.41502
upperback 0.730529 0.201519 0.265551
thorax -3.8159 0.145818 2.73863
lowerneck -15.3756 2.82353 -9.38769
upperneck 39.2865 1.57423 3.54332
head 16.5829 -1.67207 3.11786
rclavicle 9.93923e-016 8.34896e-015
rhumerus -29.7155 -1.97886 -81.6259
rradius 42.933
rwrist 15.8278
rhand -21.3011 3.09048
rfingers 7.12502
rthumb 5.08365 -26.8285
lclavicle 9.93923e-016 8.34896e-015
lhumerus -28.8977 8.98638 81.8422
lradius 33.6423
lwrist -1.7329
lhand -18.2794 24.4156
lfingers 7.12502
lthumb 8.00065 54.2442
rfemur -40.4482 -4.20686 17.5267
rtibia 81.6597
rfoot -9.00117 -10.2527
rtoes 13.444
lfemur -26.7287 1.64436 -28.2926
ltibia 43.3038
lfoot -14.7614 -2.62831
ltoes -21.4723
240
root -0.274674 21.1024 8.12257 -170.098 -1.91152 177.709
lowerback 8.1248 0.445079 -4.45242
upperback 0.67342 0.141329 0.3076
thorax -3.87391 0.120431 2.8103
lowerneck -15.3976 2.88689 -9.34676
upperneck 39.3728 1.59887 3.62537
head 16.629 -1.65805 3.15156
rclavicle -4.96962e-017 -9.74045e-015
rhumerus -29.7529 -2.17253 -81.4989
rradius 43.036
rwrist 15.6074
rhand -21.2004 3.30926
rfingers 7.12502
rthumb 5.18087 -26.6074
lclavicle -4.96962e-017 -9.74045e-015
lhumerus -28.9643 8.79224 81.8874
lradius 34.0089
lwrist -1.5905
lhand -18.1553 24.2325
lfingers 7.12502
lthumb 8.12046 54.0565
rfemur -41.9297 -4.36688 17.548
rtibia 84.0673
rfoot -10.388 -9.86584
rtoes 13.4147
lfemur -25.7359 1.59517 -28.3412
ltibia 41.7804
lfoot -14.097 -2.43196
ltoes -22.187
241
root -0.285143 21.1786 8.08387 -170.129 -1.83885 177.678
lowerback 8.12648 0.362387 -4.55947
upperback 0.643366 0.0263987 0.39706
thorax -3.89693 0.0678384 2.97695
lowerneck -15.5603 2.95471 -9.24772
upperneck 39.5085 1.71822 3.48255
head 16.7364 -1.63122 3.09349
rclavicle -4.96962e-017 -3.18055e-015
rhumerus -29.6782 -2.18535 -81.3651
rradius 43.026
rwrist 15.4967
rhand -21.1875 3.21169
rfingers 7.12502
rthumb 5.1933 -26.7047
lclavicle -4.96962e-017 -3.18055e-015
lhumerus -28.9999 8.72846 81.96
lradius 34.2792
lwrist -1.55482
lhand -18.3758 24.0776
lfingers 7.12502
lthumb 7.90768 53.9097
rfemur -43.331 -4.61114 17.576
rtibia 86.3342
rfoot -11.5087 -9.32462
rtoes 12.5687
lfemur -24.7061 1.52922 -28.4038
ltibia 40.1825
lfoot -13.4673 -2.25846
ltoes -23.0343
242
root -0.297889 21.254 8.04155 -170.159 -1.62396 177.643
lowerback 8.05587 0.320046 -4.67147
upperback 0.66226 -0.0338188 0.452376
thorax -3.83258 0.0383693 3.1043
lowerneck -15.6547 2.96625 -9.25422
upperneck 39.451 1.78307 3.45258
head 16.7241 -1.60283 3.09351
rclavicle 3.8266e-015 -2.5842e-015
rhumerus -29.5019 -2.28295 -81.2675
rradius 42.9165
rwrist 15.5889
rhand -21.2348 3.21771
rfingers 7.12502
rthumb 5.14759 -26.6998
lclavicle 3.8266e-015 -2.5842e-015
lhumerus -28.94 8.52537 82.0049
lradius 34.4414
lwrist -1.56492
lhand -18.4879 23.9958
lfingers 7.12502
lthumb 7.79948 53.8319
rfemur -44.7054 -4.70854 17.585
rtibia 88.4698
rfoot -12.6539 -8.7224
rtoes 10.8525
lfemur -23.6773 1.52083 -28.4726
ltibia 38.5145
lfoot -12.8144 -2.16042
ltoes -22.8577
